<?xml version="1.0" encoding="UTF-8"?>
<svg id="Layer_2" data-name="Layer 2" xmlns="http://www.w3.org/2000/svg" viewBox="0 0 2544.75 2510">
  <defs>
    <style>
      .cls-1 {
        font-size: 104.92px;
      }

      .cls-1, .cls-2 {
        font-family: EdwardianScriptITC, 'Edwardian Script ITC';
      }

      .cls-1, .cls-2, .cls-3 {
        fill: #b81224;
      }

      .cls-2 {
        font-size: 100px;
      }

      .cls-3 {
        stroke-width: 0px;
      }
    </style>
  </defs>
  <g id="Layer_1-2" data-name="Layer 1">
    <g>
      <path class="cls-3" d="M1272.38,15c84.14,0,168.23,8.48,249.92,25.19,79.61,16.29,157.91,40.6,232.74,72.25,73.47,31.08,144.34,69.54,210.63,114.32,65.66,44.36,127.41,95.31,183.53,151.42,56.12,56.12,107.06,117.86,151.42,183.53,44.78,66.29,83.25,137.15,114.32,210.63,31.65,74.83,55.96,153.13,72.25,232.74,16.72,81.69,25.19,165.78,25.19,249.92s-8.48,168.23-25.19,249.92c-16.29,79.61-40.6,157.91-72.25,232.74-31.08,73.47-69.54,144.34-114.32,210.63-44.36,65.66-95.31,127.41-151.42,183.53-56.12,56.12-117.86,107.06-183.53,151.42-66.29,44.78-137.15,83.25-210.63,114.32-74.83,31.65-153.13,55.96-232.74,72.25-81.69,16.72-165.78,25.19-249.92,25.19s-168.23-8.48-249.92-25.19c-79.61-16.29-157.91-40.6-232.74-72.25-73.47-31.08-144.34-69.54-210.63-114.32-65.66-44.36-127.41-95.31-183.53-151.42-56.12-56.12-107.06-117.86-151.42-183.53-44.78-66.29-83.25-137.15-114.32-210.63-31.65-74.83-55.96-153.13-72.25-232.74-16.72-81.69-25.19-165.78-25.19-249.92s8.48-168.23,25.19-249.92c16.29-79.61,40.6-157.91,72.25-232.74,31.08-73.47,69.54-144.34,114.32-210.63,44.36-65.66,95.31-127.41,151.42-183.53,56.12-56.12,117.86-107.06,183.53-151.42,66.29-44.78,137.15-83.25,210.63-114.32,74.83-31.65,153.13-55.96,232.74-72.25,81.69-16.72,165.78-25.19,249.92-25.19M1272.38,0C579.26,0,17.38,561.88,17.38,1255s561.88,1255,1255,1255,1255-561.88,1255-1255S1965.49,0,1272.38,0h0Z"/>
      <path class="cls-3" d="M1272.38,220c70.23,0,140.41,7.07,208.59,21.03,66.45,13.6,131.81,33.89,194.27,60.31,61.33,25.94,120.48,58.04,175.81,95.43,54.81,37.03,106.34,79.55,153.18,126.39s89.36,98.37,126.39,153.18c37.38,55.33,69.49,114.48,95.43,175.81,26.42,62.46,46.71,127.82,60.31,194.27,13.95,68.19,21.03,138.37,21.03,208.59s-7.07,140.41-21.03,208.59c-13.6,66.45-33.89,131.81-60.31,194.27-25.94,61.33-58.04,120.48-95.43,175.81-37.03,54.81-79.55,106.34-126.39,153.18s-98.37,89.36-153.18,126.39c-55.33,37.38-114.48,69.49-175.81,95.43-62.46,26.42-127.82,46.71-194.27,60.31-68.19,13.95-138.37,21.03-208.59,21.03s-140.41-7.07-208.59-21.03c-66.45-13.6-131.81-33.89-194.27-60.31-61.33-25.94-120.48-58.04-175.81-95.43-54.81-37.03-106.34-79.55-153.18-126.39s-89.36-98.37-126.39-153.18c-37.38-55.33-69.49-114.48-95.43-175.81-26.42-62.46-46.71-127.82-60.31-194.27-13.95-68.19-21.03-138.37-21.03-208.59s7.07-140.41,21.03-208.59c13.6-66.45,33.89-131.81,60.31-194.27,25.94-61.33,58.04-120.48,95.43-175.81,37.03-54.81,79.55-106.34,126.39-153.18s98.37-89.36,153.18-126.39c55.33-37.38,114.48-69.49,175.81-95.43,62.46-26.42,127.82-46.71,194.27-60.31,68.19-13.95,138.37-21.03,208.59-21.03M1272.38,215c-574.38,0-1040,465.62-1040,1040s465.62,1040,1040,1040,1040-465.62,1040-1040S1846.75,215,1272.38,215h0Z"/>
      <g>
        <path class="cls-3" d="M366.47,1941.5c-99.8,0-185.85-23.74-255.76-70.57-70.47-47.2-106.21-105.59-106.21-173.54,0-35.54,11.01-66.35,32.72-91.58,21.88-25.46,48.91-38.37,80.35-38.37,21.57,0,38.1,5.43,49.16,16.15,11.09,10.76,16.72,26.86,16.72,47.86s-7.53,40.87-22.39,56.47c-14.92,15.66-32.62,23.59-52.61,23.59-31.85,0-48.69-16.26-48.69-47.01v-.22l1.99-19.94.37-.74c.94-1.87,1.41-4.69,1.41-8.38,0-4.61-1.57-4.96-3.96-4.96-1.49,0-6.97,1.5-14.64,20.78-6.02,15.12-9.07,30.77-9.07,46.5,0,59.83,31.98,111.16,95.05,152.55,63.67,41.81,143.08,63.01,236.02,63.01,133.4,0,282.46-66.68,443.01-198.2,36.79-29.36,78.17-68.6,123.04-116.66,89.61-94.14,161.93-168.48,215.01-221l20.87-21.61h-180.87l17.39-25.79h2.39c59.45,0,121.3.62,183.88,1.85,91.36-101.54,182.63-190.7,271.29-265.02,89.18-74.75,178.24-136.6,264.71-183.84,86.53-47.28,176.8-83.39,268.28-107.35,91.37-23.93,186.52-36.39,282.82-37.05,44.55-8.77,86.91-13.21,125.91-13.21,91.24,0,135.59,15.12,135.59,46.22,0,8.02-3.16,21.48-24.32,21.48-6.03,0-27.01-3.73-64.13-11.41-66.36-13.64-122.33-20.59-166.38-20.66-99.77,30.56-189.18,90.45-265.75,178.02-77.08,88.12-166.23,233.1-264.99,430.91-76,152.54-163.96,275.63-261.42,365.82-48.8,45.17-101.01,83.04-155.19,112.57-47.42,25.85-97.5,45.94-149.17,59.86,40.04,5.35,75.63,8.06,106.04,8.06,114.09,0,211.2-37.09,288.65-110.25,75.53-71.21,139.13-147.83,189.04-227.75,6.9-10.77,11.98-15.35,17.02-15.35,7.93,0,10.28,4.48,10.97,7.14l.14.56v.57c0,4.71,0,15.74-109.59,149-67.35,82.38-129.71,140-185.33,171.26-55.83,31.34-124.84,47.23-205.13,47.23-45.7,0-102.13-6.61-167.76-19.66-40.33,13.04-87.1,19.66-139.03,19.66-14.65,0-59.24,0-59.24-23.97,0-9.59,7.27-16.65,21.61-20.99,12.65-3.82,31.67-5.76,56.54-5.76,34.43,0,74.68,3.15,119.66,9.36,95.84-23.03,169.3-61.34,218.33-113.89,49.15-52.67,144.92-196.52,284.7-427.62h-353.22c-152.84,160.94-272.79,277.07-356.56,345.21-98.27,79.77-195.1,140.45-287.79,180.37-92.87,39.99-184.22,60.27-271.51,60.27ZM1650.34,1331.74c80.09-139.22,177.96-265.88,290.94-376.49,55.89-55.32,108.95-100.13,157.69-133.19,35.64-24.17,69.73-42.57,101.78-54.95-149.09,12.95-289.58,59.47-418.1,138.52-137.5,84.59-298,227.94-477.12,426.12h344.81ZM729.29,1358.63c-72.49,0-131.55-22.69-175.55-67.45-43.96-44.72-66.25-104.89-66.25-178.85,0-66.85,16.29-132.14,48.41-194.04,32.05-61.76,80.75-121.85,144.75-178.62,63.97-56.75,131.61-99.92,201.05-128.32,69.52-28.43,142.78-42.85,217.73-42.85,66.72,0,119.84,16.94,157.89,50.33,38.2,33.56,57.57,80.23,57.57,138.71,0,43.42-15.51,95.39-46.11,154.45-26.77,52.67-40.35,88.6-40.35,106.75,0,44.1,25.73,65.54,78.65,65.54,61.17,0,125.74-46.49,191.94-138.19,6.8-9.04,12.45-13.21,17.83-13.21,7.54,0,12.05,4.5,12.05,12.05,0,5.62-4.1,16.71-36.04,52.94-32.24,36.93-64.11,65.06-94.73,83.59-30.93,18.73-61.49,28.22-90.81,28.22-37.66,0-68.79-13.39-92.53-39.81-23.62-26.28-35.6-61.21-35.6-103.82,0-36.41,20.74-93.13,63.42-173.4,19.25-35.79,29.01-65.65,29.01-88.75,0-29.74-16.91-55.69-50.27-77.11-33.99-21.83-76.16-32.9-125.33-32.9-142.15,0-275.81,55.6-397.29,165.26-121.33,109.56-182.85,229.64-182.85,356.92,0,64.03,20.33,117.05,60.42,157.58,40.07,40.52,92.73,61.07,156.52,61.07,69.7,0,140.94-25.9,211.75-76.99,70.81-51.09,121.46-113.39,150.55-185.19,2.52-8.25,6.49-12.43,11.79-12.43,8.13,0,12.98,5.21,12.98,13.93,0,14.21-11.02,38-33.69,72.71-22.08,33.77-45.1,62.43-68.43,85.17-42.56,41.98-88.4,73.94-136.23,94.97-47.91,21.06-99.13,31.74-152.24,31.74Z"/>
        <path class="cls-3" d="M1099.43,573c65.92,0,117.56,16.42,154.92,49.22,37.36,32.82,56.04,77.94,56.04,135.33,0,42.9-15.21,93.71-45.61,152.38-27.25,53.62-40.85,89.91-40.85,108.82,0,46.7,27.72,70.04,83.15,70.04,62.98,0,128.18-46.68,195.59-140.06,5.68-7.55,10.41-11.34,14.19-11.34,5.03,0,7.55,2.52,7.55,7.55,0,6.92-11.65,23.57-34.92,49.96-64.19,73.53-124.92,110.29-182.17,110.29-36.5,0-66.22-12.76-89.19-38.32-22.97-25.55-34.45-59.16-34.45-100.81,0-35.31,20.96-92.42,62.89-171.29,19.68-36.59,29.53-66.87,29.53-90.86,0-31.54-17.45-58.49-52.34-80.89-34.89-22.41-77.49-33.61-127.76-33.61-143.97,0-277.41,55.48-400.3,166.42-122.89,110.96-184.34,231.04-184.34,360.26,0,65.54,20.57,119.14,61.72,160.74,41.13,41.6,94.38,62.4,159.72,62.4,71,0,142.46-25.95,214.38-77.84,71.93-51.9,122.63-114.34,152.17-187.34,1.89-6.29,4.4-9.43,7.55-9.43,5.64,0,8.48,3.14,8.48,9.43,0,13.21-10.99,36.62-32.96,70.25-21.99,33.63-44.58,61.77-67.8,84.41-84.76,83.62-179.86,125.43-285.33,125.43-71.58,0-129.02-22.03-172.34-66.1-43.32-44.07-64.96-102.65-64.96-175.69,0-132.86,63.87-255.96,191.65-369.3,127.76-113.34,266.35-170.03,415.79-170.03M2404.66,729.73c87.39,0,131.09,13.91,131.09,41.72,0,11.32-6.61,16.98-19.82,16.98-5.66,0-26.74-3.77-63.22-11.32-67.32-13.84-123.31-20.75-167.96-20.75-101.3,30.89-190.79,90.72-268.47,179.56-77.7,88.84-166.24,232.78-265.63,431.86-152.24,305.55-347.27,486.04-585.06,541.48,49.71,7.55,92.82,11.34,129.34,11.34,115.81,0,213.06-37.15,291.74-111.48,76.14-71.79,139.4-148,189.76-228.64,5.64-8.8,10.04-13.23,13.21-13.23,3.77,0,5.96,1.26,6.61,3.77,0,9.43-36.2,58.14-108.57,146.14-67.34,82.36-128.69,139.08-184.06,170.2-55.39,31.1-123.03,46.65-202.92,46.65-45.96,0-101.97-6.61-168.03-19.8-40.27,13.18-86.53,19.8-138.75,19.8-36.5,0-54.74-6.5-54.74-19.47,0-14.81,24.55-22.24,73.65-22.24,34.61,0,74.56,3.14,119.89,9.43,97.55-23.32,171.36-61.77,221.39-115.39,50.03-53.62,146.51-198.68,289.38-435.19h-363.13c-154.06,162.28-273.22,277.69-357.47,346.22-196.82,159.76-382.3,239.63-556.45,239.63-99.37,0-183.78-23.27-253.26-69.81-69.48-46.54-104.21-103.14-104.21-169.8,0-34.57,10.53-64.12,31.63-88.65,21.08-24.53,46.72-36.8,76.93-36.8,40.9,0,61.38,19.85,61.38,59.51,0,20.78-7.06,38.57-21.15,53.36-14.11,14.81-30.56,22.2-49.36,22.2-29.46,0-44.19-14.16-44.19-42.51l1.89-18.89c1.26-2.52,1.89-5.96,1.89-10.39,0-6.29-2.82-9.46-8.45-9.46-6.29,0-12.55,7.87-18.82,23.62-6.27,15.75-9.39,31.82-9.39,48.17,0,61.72,32.35,113.83,97.08,156.31,64.73,42.51,144.23,63.75,238.49,63.75,135.1,0,283.72-66.41,445.86-199.22,37.06-29.58,78.22-68.6,123.47-117.07,89.86-94.4,161.49-168.03,214.92-220.9l28.28-29.28h-183.01l11.32-16.79c60.37,0,122.31.63,185.85,1.89,184.22-205,362.94-354.81,536.19-449.45,173.23-94.64,356.35-142.6,549.4-143.85,44.63-8.8,86.46-13.21,125.45-13.21M2236.87,760.13c-164.14,8.2-316.33,55.41-456.58,141.66-140.24,86.28-301.87,231.08-484.88,434.45h357.54c80.5-140.41,177.65-266.32,291.48-377.78,111.94-110.8,209.42-176.91,292.44-198.33M1099.43,564c-75.54,0-149.37,14.53-219.43,43.18-69.91,28.59-137.98,72.03-202.33,129.12-64.42,57.14-113.46,117.67-145.76,179.92-16.22,31.25-28.56,63.59-36.67,96.12-8.12,32.56-12.24,66.2-12.24,99.99,0,37.43,5.65,71.69,16.79,101.83,11.22,30.36,28.3,57.33,50.75,80.17,22.47,22.86,48.97,40.24,78.77,51.67,29.62,11.36,63.26,17.12,99.99,17.12,53.74,0,105.57-10.81,154.05-32.12,48.33-21.25,94.61-53.5,137.57-95.88,23.56-22.97,46.79-51.88,69.04-85.92,23.49-35.97,34.43-59.85,34.43-75.17,0-11.2-6.86-18.43-17.48-18.43-5.15,0-12.08,2.69-16.04,15.42-28.78,70.92-78.89,132.51-148.94,183.05-70.03,50.52-140.38,76.14-209.12,76.14-62.54,0-114.13-20.1-153.32-59.73-39.23-39.65-59.12-91.61-59.12-154.41,0-125.95,61.02-244.92,181.37-353.58,120.62-108.89,253.27-164.1,394.27-164.1,48.29,0,89.64,10.83,122.9,32.18,32.43,20.83,48.2,44.81,48.2,73.32,0,22.35-9.58,51.49-28.46,86.6-43.05,80.98-63.96,138.39-63.96,175.56,0,43.75,12.37,79.69,36.76,106.83,24.63,27.4,56.89,41.3,95.88,41.3,30.16,0,61.5-9.71,93.14-28.87,31.02-18.78,63.25-47.21,95.81-84.5,32.63-37.01,37.14-48.73,37.14-55.88,0-10.05-6.49-16.55-16.55-16.55-9.08,0-16.55,8.52-21.37,14.93l-.05.07-.05.07c-65.3,90.46-128.65,136.32-188.29,136.32-50.59,0-74.15-19.4-74.15-61.04,0-11.99,6.91-39.88,39.86-104.72,15.38-29.69,27.09-57.82,34.82-83.63,7.82-26.12,11.78-50.63,11.78-72.86,0-59.84-19.88-107.64-59.1-142.09-19.54-17.15-43.08-30.18-69.96-38.72-26.59-8.45-57.17-12.73-90.89-12.73h0ZM2404.66,720.73c-39.17,0-81.67,4.44-126.36,13.21-96.53.7-191.91,13.21-283.5,37.2-91.84,24.05-182.45,60.3-269.3,107.75-86.74,47.38-176.05,109.4-265.45,184.34-88.37,74.08-179.32,162.86-270.37,263.93-61.91-1.2-123.08-1.81-181.91-1.81h-4.79l-2.68,3.97-11.32,16.79-9.46,14.03h178.72l-13.48,13.95c-53.1,52.55-125.45,126.91-215.03,221.02l-.03.03-.03.03c-44.72,47.89-85.94,86.98-122.51,116.18l-.04.04-.04.04c-159.73,130.84-307.82,197.18-440.16,197.18-92.05,0-170.63-20.95-233.55-62.27-62.6-41.08-93.02-89.75-93.02-148.79,0-15.17,2.94-30.25,8.75-44.84,4.77-11.98,8.34-16.06,9.91-17.39-.01,3.98-.66,5.7-.94,6.26l-.74,1.48-.16,1.65-1.89,18.89-.04.45v.45c0,16.65,4.64,29.56,13.8,38.37,9.06,8.72,22.31,13.14,39.38,13.14,21.27,0,40.07-8.41,55.87-24.99,15.68-16.46,23.63-36.5,23.63-59.57s-6.08-39.46-18.08-51.09c-11.92-11.56-29.51-17.42-52.29-17.42-32.8,0-60.99,13.44-83.76,39.94-22.43,26.07-33.81,57.87-33.81,94.52s9.21,67.55,27.38,97.15c17.97,29.28,45.16,56.24,80.82,80.12,35.38,23.7,75.1,41.72,118.04,53.55,42.79,11.8,89.97,17.78,140.23,17.78,43.99,0,89.31-5.11,134.69-15.19,45.29-10.06,91.93-25.35,138.6-45.45,46.58-20.06,94.51-45.47,142.46-75.52,47.87-30.01,97.12-65.5,146.38-105.48,83.67-68.06,203.33-183.86,355.66-344.2h343.3c-137.37,226.83-231.55,368.13-280,420.05-48.28,51.74-120.7,89.55-215.26,112.38-44.84-6.16-85.02-9.29-119.43-9.29-25.67,0-44.59,1.95-57.84,5.95-20.51,6.2-24.81,17.17-24.81,25.29,0,7.34,3.41,17.3,19.66,23.08,10.19,3.63,24.61,5.39,44.07,5.39,51.92,0,98.77-6.57,139.29-19.51,65.42,12.95,121.76,19.51,167.49,19.51,40.43,0,78.34-4,112.67-11.9,34.5-7.93,66.34-20.01,94.66-35.91,28.18-15.84,58.2-38.42,89.24-67.12,30.84-28.52,63.61-63.92,97.38-105.23,36.11-43.91,63.6-78.52,81.68-102.86,26.69-35.92,28.92-43.89,28.92-48.97v-1.15l-.29-1.11c-.64-2.47-3.63-10.52-15.33-10.52-6.86,0-12.88,5.03-20.79,17.38l-.03.04-.03.04c-49.7,79.59-113.06,155.92-188.3,226.86-76.59,72.35-172.66,109.03-285.56,109.03-24.58,0-52.57-1.78-83.61-5.31,44.5-13.56,87.7-31.7,128.9-54.15,54.5-29.71,107.02-67.8,156.09-113.22,48.98-45.33,95.9-99.22,139.45-160.19,43.48-60.86,84.84-130.48,122.93-206.93,98.58-197.46,187.52-342.12,264.34-429.95,75.85-86.74,164.34-146.11,263.03-176.48,43.64.14,99.08,7.06,164.81,20.57,49.84,10.31,60.98,11.5,65.03,11.5,8.78,0,15.75-2.16,20.72-6.41,3.7-3.17,8.1-9.13,8.1-19.57,0-9.48-3.69-17.81-10.98-24.76-6.52-6.23-15.71-11.17-28.06-15.1-22.95-7.3-56-10.85-101.05-10.85h0ZM1315.68,1327.24c176.1-193.99,333.92-334.49,469.33-417.78,119.54-73.52,249.46-118.76,387.05-134.9-24.27,11.47-49.54,26.1-75.61,43.78-48.97,33.21-102.25,78.21-158.35,133.73-56.91,55.72-110.43,115.93-159.03,178.93-47.56,61.64-91.72,127.64-131.32,196.24h-332.07Z"/>
      </g>
      <path class="cls-3" d="M864,2109h169.08c35.84,0,71.68,0,107.52,0,39.09,0,78.19,0,117.28,0h389.6c10.63,0,21.28.23,31.91,0,.45,0,.9,0,1.35,0,3.22,0,3.22-5,0-5h-169.08c-35.84,0-71.68,0-107.52,0-39.09,0-78.19,0-117.28,0h-389.6c-10.63,0-21.28-.23-31.91,0-.45,0-.9,0-1.35,0-3.22,0-3.22,5,0,5h0Z"/>
      <text class="cls-2" transform="translate(1168.32 2224.85)"><tspan x="0" y="0">2026</tspan></text>
      <text class="cls-1" transform="translate(1040.56 360.98) rotate(-11.82)"><tspan x="0" y="0">V</tspan></text>
      <text class="cls-1" transform="translate(1116.76 345.79) rotate(-8.93)"><tspan x="0" y="0">i</tspan></text>
      <text class="cls-1" transform="translate(1133.83 343.09) rotate(-7.79)"><tspan x="0" y="0">s</tspan></text>
      <text class="cls-1" transform="translate(1153.6 340.29) rotate(-6.19)"><tspan x="0" y="0">u</tspan></text>
      <text class="cls-1" transform="translate(1185.64 336.78) rotate(-4.14)"><tspan x="0" y="0">a</tspan></text>
      <text class="cls-1" transform="translate(1221.2 334.33) rotate(-2.57)"><tspan x="0" y="0">l</tspan></text>
      <text class="cls-1" transform="translate(1237.67 333.58) rotate(-1.52)"><tspan x="0" y="0"> </tspan></text>
      <text class="cls-1" transform="translate(1255.32 332.24) rotate(1.48)"><tspan x="0" y="0">C</tspan></text>
      <text class="cls-1" transform="translate(1337.85 335.1) rotate(4.93)"><tspan x="0" y="0">u</tspan></text>
      <text class="cls-1" transform="translate(1370.1 337.98) rotate(6.41)"><tspan x="0" y="0">l</tspan></text>
      <text class="cls-1" transform="translate(1386.5 339.82) rotate(7.44)"><tspan x="0" y="0">t</tspan></text>
      <text class="cls-1" transform="translate(1403.23 341.9) rotate(8.94)"><tspan x="0" y="0">u</tspan></text>
      <text class="cls-1" transform="translate(1435.12 346.94) rotate(10.8)"><tspan x="0" y="0">r</tspan></text>
      <text class="cls-1" transform="translate(1463.25 352.32) rotate(12.46)"><tspan x="0" y="0">e</tspan></text>
      <polygon class="cls-3" points="2203.38 1205.93 2215.65 1233.75 2245.88 1230.46 2227.91 1255 2245.88 1279.54 2215.65 1276.25 2203.38 1304.07 2191.11 1276.25 2160.88 1279.54 2178.84 1255 2160.88 1230.46 2191.11 1233.75 2203.38 1205.93"/>
      <polygon class="cls-3" points="383.94 1205.93 396.21 1233.75 426.44 1230.46 408.48 1255 426.44 1279.54 396.21 1276.25 383.94 1304.07 371.67 1276.25 341.44 1279.54 359.4 1255 341.44 1230.46 371.67 1233.75 383.94 1205.93"/>
    </g>
  </g>
</svg>